<?xml version="1.0" standalone="no"?>
<!DOCTYPE svg PUBLIC "-//W3C//DTD SVG 20010904//EN"
 "http://www.w3.org/TR/2001/REC-SVG-20010904/DTD/svg10.dtd">
<svg version="1.0" xmlns="http://www.w3.org/2000/svg"
 width="512.000000pt" height="512.000000pt" viewBox="0 0 512.000000 512.000000"
 preserveAspectRatio="xMidYMid meet">
<metadata>
Created by potrace 1.11, written by Peter Selinger 2001-2013
</metadata>
<g transform="translate(0.000000,512.000000) scale(0.100000,-0.100000)"
fill="#000000" stroke="none">
<path d="M2283 4894 c-636 -77 -1225 -416 -1602 -922 -288 -385 -451 -790
-501 -1237 -13 -116 -13 -384 0 -500 60 -537 289 -1026 660 -1409 544 -562
1298 -819 2070 -706 847 124 1567 698 1879 1500 259 664 203 1433 -149 2047
-233 405 -513 696 -883 915 -438 260 -973 373 -1474 312z m307 -936 c12 -35
83 -202 158 -373 74 -170 157 -366 184 -435 28 -69 55 -130 62 -137 11 -12
265 -36 831 -78 121 -9 231 -20 244 -24 23 -7 20 -11 -51 -72 -134 -113 -660
-572 -710 -619 l-49 -45 121 -505 c66 -278 125 -520 130 -538 l9 -33 -57 33
c-31 17 -127 74 -212 126 -373 228 -680 412 -689 412 -8 0 -158 -90 -761 -455
-102 -62 -186 -110 -188 -106 -1 4 54 243 123 531 69 289 124 530 123 536 -2
7 -131 123 -288 259 -157 136 -342 298 -413 359 -114 99 -125 112 -105 118 13
3 122 14 243 23 522 39 819 66 831 76 7 6 31 56 53 112 22 56 88 212 147 347
58 135 133 310 166 389 59 144 66 161 72 161 2 0 14 -28 26 -62z"/>
<path d="M2425 3092 l-131 -307 -184 -17 c-102 -9 -254 -22 -337 -28 -98 -8
-153 -17 -153 -24 0 -6 113 -109 250 -229 144 -126 250 -226 250 -235 -1 -9
-34 -156 -74 -327 -40 -170 -71 -314 -69 -318 5 -9 24 1 334 190 130 78 242
143 249 143 12 0 91 -46 429 -252 80 -48 148 -85 152 -81 5 5 -26 152 -67 327
-41 176 -73 323 -72 327 3 9 140 131 361 322 81 71 147 132 147 136 0 4 -152
20 -337 35 -186 16 -341 31 -344 35 -4 3 -43 92 -87 196 -139 331 -176 415
-182 415 -3 -1 -64 -139 -135 -308z"/>
</g>
</svg>
